<?xml version="1.0" encoding="UTF-8" standalone="no"?>
<!DOCTYPE svg PUBLIC "-//W3C//DTD SVG 1.1//EN" "http://www.w3.org/Graphics/SVG/1.1/DTD/svg11.dtd">
<svg width="100%" height="100%" viewBox="0 0 181 233" version="1.1" xmlns="http://www.w3.org/2000/svg" xmlns:xlink="http://www.w3.org/1999/xlink" xml:space="preserve" xmlns:serif="http://www.serif.com/" style="fill-rule:evenodd;clip-rule:evenodd;stroke-linejoin:round;stroke-miterlimit:2;">
    <g transform="matrix(0.455078,0,0,0.455078,-180.368,-115.301)">
        <g transform="matrix(1,0,0,1,-1637,-38.2933)">
            <path d="M2145.26,527.825L2145.04,528.363C2133.14,556.95 2134.93,588.617 2141.41,607.372C2154.15,644.278 2187.39,672.916 2226.25,677.004C2252.08,679.721 2280.54,671.741 2307.12,647.705C2310.7,644.466 2310.98,638.928 2307.74,635.347C2304.5,631.765 2298.96,631.486 2295.38,634.725C2273.21,654.775 2249.63,661.867 2228.08,659.6C2195.87,656.212 2168.51,632.249 2157.95,601.659C2152.49,585.855 2151.17,559.178 2161.2,535.087C2169.07,516.177 2184.12,498.926 2209.96,489.936C2282.61,464.657 2329.26,531.169 2311.97,578.857C2303.63,601.867 2285.16,609.868 2271.54,607.5C2265.4,606.433 2260.1,603.297 2259.86,597.829C2259.86,597.826 2275.36,538.695 2275.36,538.695C2276.59,534.023 2273.79,529.237 2269.12,528.012C2266.15,527.233 2263.13,528.081 2261.01,530.002C2252.65,522.171 2243.61,519.334 2235.05,519.919C2218.92,521.018 2202.81,535.562 2194.54,557.943C2185.57,582.2 2190.7,603.833 2202.32,613.315C2211.87,621.11 2227.32,622.629 2245.34,609.572C2248.12,614.705 2252.71,618.828 2258.57,621.615C2278.07,630.896 2314.17,624.154 2328.43,584.82C2349.74,526.021 2293.79,442.239 2204.2,473.408C2173.05,484.246 2154.89,505.057 2145.26,527.825ZM2254.51,549.22C2248.74,540.909 2242.58,536.945 2236.24,537.378C2225.58,538.105 2216.42,549.218 2210.95,564.012C2207.25,574.019 2206.47,583.405 2208.31,590.737C2209.26,594.542 2210.89,597.727 2213.38,599.757C2216.11,601.986 2219.84,602.437 2224.2,601.18C2230.27,599.428 2237.1,594.806 2244.61,586.981L2254.51,549.22Z" style="fill:white;"/>
        </g>
        <g>
            <g transform="matrix(1,0,0,1,338.243,253.365)">
                <path d="M248.875,397.537C253.105,398.032 257.403,398.275 261.757,398.275C263.915,398.275 266.059,398.215 268.183,398.086C259.22,417.772 247.163,436.107 232.322,452.429L196.848,491.455C195.106,493.37 192.715,494.345 190.313,494.345C188.197,494.345 186.071,493.586 184.378,492.052C180.77,488.767 180.507,483.19 183.788,479.578L219.262,440.552C231.143,427.485 241.077,413.011 248.875,397.537Z" style="fill:white;"/>
            </g>
            <g transform="matrix(1,0,0,1,338.243,253.365)">
                <path d="M212.383,387.137C217.732,389.692 223.31,391.844 229.085,393.53C222.864,404.556 215.396,414.939 206.788,424.5L170.396,464.939C167.138,468.559 161.551,468.853 157.93,465.594C154.305,462.336 154.012,456.749 157.275,453.128L193.667,412.689C200.803,404.761 207.069,396.205 212.383,387.137Z" style="fill:white;"/>
            </g>
            <g transform="matrix(1,0,0,1,338.243,253.365)">
                <path d="M310.246,387.538C299.504,420.098 281.979,450.31 258.457,476.19L228.522,509.112C226.779,511.026 224.387,512 221.986,512C219.87,512 217.744,511.241 216.051,509.707C212.443,506.422 212.18,500.845 215.461,497.233L245.392,464.311C264.047,443.786 278.64,420.329 288.687,395.067C296.186,393.269 303.399,390.735 310.246,387.538Z" style="fill:white;"/>
            </g>
            <g transform="matrix(1,0,0,1,338.243,253.365)">
                <path d="M183.162,367.157C187.499,371.23 192.152,374.97 197.08,378.34C192.38,386.332 186.843,393.881 180.544,400.881L154.674,429.631C151.42,433.26 145.829,433.545 142.208,430.286C138.583,427.028 138.29,421.441 141.553,417.82L167.423,389.07C173.507,382.309 178.778,374.962 183.162,367.157Z" style="fill:white;"/>
            </g>
            <g transform="matrix(1,0,0,1,338.243,253.365)">
                <path d="M355.144,350.311C347.165,405.846 322.797,457.896 284.576,499.939L276.3,509.051C274.558,510.966 272.163,511.939 269.762,511.939C267.646,511.939 265.52,511.18 263.831,509.646C260.223,506.37 259.956,500.784 263.232,497.172L271.512,488.06C301.292,455.304 322.101,416.068 332.526,373.858C341.14,367.13 348.769,359.201 355.144,350.311Z" style="fill:white;"/>
            </g>
            <g transform="matrix(1,0,0,1,338.243,253.365)">
                <path d="M159.069,334.995C162.329,341.462 166.182,347.578 170.564,353.269C166.305,361.9 160.851,369.976 154.297,377.26L131,403.148C127.742,406.777 122.155,407.062 118.534,403.803C114.909,400.545 114.616,394.958 117.879,391.337L141.176,365.449C149.213,356.516 155.263,346.154 159.069,334.995Z" style="fill:white;"/>
            </g>
            <g transform="matrix(1,0,0,1,338.243,253.365)">
                <path d="M362.843,432.552C361.762,432.552 360.661,432.353 359.593,431.931C355.063,430.138 352.843,425 354.641,420.474C359.08,409.276 362.874,397.69 365.922,386.043C367.15,381.328 371.973,378.543 376.694,379.732C381.409,380.965 384.237,385.792 383,390.508C379.776,402.845 375.758,415.112 371.056,426.974C369.68,430.44 366.361,432.552 362.843,432.552Z" style="fill:white;fill-rule:nonzero;"/>
            </g>
            <g transform="matrix(1,0,0,1,338.243,253.365)">
                <path d="M100.765,379.586C98.662,379.586 96.55,378.836 94.864,377.318C91.239,374.06 90.946,368.473 94.209,364.852L114.928,341.826C123.695,332.085 128.522,319.507 128.522,306.395C128.522,301.516 132.475,297.567 137.35,297.567C142.225,297.567 146.178,301.515 146.178,306.395C146.178,323.869 139.738,340.654 128.048,353.637L107.329,376.663C105.588,378.603 103.184,379.586 100.765,379.586Z" style="fill:white;fill-rule:nonzero;"/>
            </g>
            <g transform="matrix(1,0,0,1,338.243,253.365)">
                <path d="M381.636,361.103C381.231,361.103 380.826,361.078 380.42,361.017C375.588,360.353 372.213,355.905 372.877,351.068C374.747,337.49 375.696,323.645 375.696,309.922L375.696,273.655C375.696,241.198 361.799,210.094 337.575,188.319C333.95,185.061 333.652,179.474 336.911,175.845C340.169,172.241 345.752,171.94 349.377,175.181C377.325,200.302 393.352,236.198 393.352,273.655L393.352,309.922C393.352,324.457 392.348,339.112 390.369,353.483C389.762,357.906 385.977,361.103 381.636,361.103Z" style="fill:white;fill-rule:nonzero;"/>
            </g>
            <g transform="matrix(1,0,0,1,338.243,253.365)">
                <path d="M137.352,282.483C132.477,282.483 128.524,278.535 128.524,273.655C128.524,208.233 177.322,151.887 242.028,142.586C246.834,141.914 251.326,145.25 252.02,150.068C252.714,154.896 249.365,159.37 244.538,160.069C188.465,168.121 146.18,216.957 146.18,273.656C146.18,278.535 142.227,282.483 137.352,282.483Z" style="fill:white;fill-rule:nonzero;"/>
            </g>
            <g transform="matrix(1,0,0,1,338.243,253.365)">
                <path d="M313.873,170.819C312.602,170.819 311.309,170.543 310.084,169.966C299.705,165.026 288.687,161.69 277.338,160.069C272.515,159.371 269.161,154.905 269.856,150.077C270.546,145.241 274.977,141.878 279.848,142.586C292.96,144.465 305.684,148.311 317.671,154.017C322.076,156.12 323.943,161.388 321.848,165.784C320.335,168.966 317.171,170.819 313.873,170.819Z" style="fill:white;fill-rule:nonzero;"/>
            </g>
            <g transform="matrix(1,0,0,1,338.243,253.365)">
                <path d="M85.037,344.276C82.934,344.276 80.822,343.526 79.136,342.008C75.511,338.75 75.218,333.163 78.481,329.542L88.683,318.206C91.605,314.956 93.213,310.767 93.213,306.396L93.213,273.654C93.213,230.775 109.446,189.939 138.924,158.68C142.269,155.128 147.851,154.956 151.403,158.309C154.951,161.654 155.114,167.24 151.769,170.783C125.394,198.765 110.869,235.301 110.869,273.654L110.869,306.396C110.869,315.138 107.649,323.525 101.804,330.016L91.602,341.352C89.861,343.293 87.456,344.276 85.037,344.276Z" style="fill:white;fill-rule:nonzero;"/>
            </g>
            <g transform="matrix(1,0,0,1,338.243,253.365)">
                <path d="M419.835,318.75C414.96,318.75 411.007,314.802 411.007,309.922L411.007,273.655C411.007,190.905 343.688,123.586 260.938,123.586C258.123,123.586 255.326,123.672 252.55,123.819C247.74,124.129 243.528,120.337 243.27,115.466C243.012,110.595 246.748,106.44 251.619,106.182C254.705,106.019 257.813,105.932 260.938,105.932C353.421,105.932 428.662,181.174 428.662,273.656L428.662,309.923C428.663,314.802 424.71,318.75 419.835,318.75Z" style="fill:white;fill-rule:nonzero;"/>
            </g>
            <g transform="matrix(1,0,0,1,338.243,253.365)">
                <path d="M170.451,151.939C167.658,151.939 164.912,150.62 163.197,148.154C160.413,144.154 161.399,138.646 165.399,135.86C180.727,125.205 197.576,117.239 215.472,112.188C220.175,110.877 225.05,113.61 226.364,118.291C227.687,122.981 224.955,127.86 220.265,129.188C204.261,133.697 189.192,140.817 175.485,150.361C173.947,151.431 172.188,151.939 170.451,151.939Z" style="fill:white;fill-rule:nonzero;"/>
            </g>
            <g transform="matrix(1,0,0,1,338.243,253.365)">
                <path d="M66.938,273.655C66.8,273.655 66.667,273.655 66.533,273.646C61.662,273.431 57.891,269.301 58.11,264.43C62.994,155.749 152.088,70.62 260.938,70.62C270.675,70.62 280.481,71.318 290.08,72.698C294.903,73.396 298.252,77.871 297.558,82.699C296.86,87.527 292.364,90.862 287.562,90.181C278.795,88.913 269.834,88.275 260.938,88.275C161.555,88.275 80.205,166 75.748,265.223C75.537,269.956 71.628,273.655 66.938,273.655Z" style="fill:white;fill-rule:nonzero;"/>
            </g>
            <g transform="matrix(1,0,0,1,338.243,253.365)">
                <path d="M445.068,220.681C441.378,220.681 437.943,218.354 436.702,214.673C428.396,189.983 415.185,167.673 397.444,148.362C394.147,144.767 394.384,139.189 397.97,135.888C401.569,132.578 407.146,132.828 410.444,136.414C429.87,157.56 444.336,181.992 453.435,209.035C454.991,213.656 452.504,218.665 447.884,220.225C446.951,220.534 445.999,220.681 445.068,220.681Z" style="fill:white;fill-rule:nonzero;"/>
            </g>
            <g transform="matrix(1,0,0,1,338.243,253.365)">
                <path d="M376.848,126.759C375.012,126.759 373.158,126.19 371.577,125C356.09,113.439 339.008,104.423 320.805,98.19C316.193,96.612 313.732,91.587 315.31,86.975C316.888,82.363 321.901,79.932 326.521,81.483C346.465,88.311 365.18,98.19 382.137,110.862C386.047,113.776 386.849,119.31 383.93,123.215C382.196,125.535 379.537,126.759 376.848,126.759Z" style="fill:white;fill-rule:nonzero;"/>
            </g>
            <g transform="matrix(1,0,0,1,338.243,253.365)">
                <path d="M80.141,141.241C78.235,141.241 76.318,140.629 74.701,139.362C70.864,136.362 70.188,130.81 73.193,126.974C98.59,94.535 132.033,69.086 169.905,53.38C174.427,51.51 179.578,53.656 181.444,58.156C183.31,62.656 181.173,67.82 176.673,69.69C141.6,84.233 110.626,107.811 87.099,137.853C85.357,140.077 82.761,141.241 80.141,141.241Z" style="fill:white;fill-rule:nonzero;"/>
            </g>
            <g transform="matrix(1,0,0,1,338.243,253.365)">
                <path d="M426.408,123.586C424.089,123.586 421.775,122.681 420.041,120.87C377.981,77.085 321.477,52.965 260.938,52.965C243.757,52.965 226.641,54.957 210.067,58.878C205.312,59.999 200.563,57.076 199.442,52.326C198.316,47.584 201.253,42.826 205.998,41.705C223.904,37.464 242.386,35.309 260.939,35.309C326.327,35.309 387.357,61.353 432.776,108.645C436.156,112.163 436.039,117.748 432.526,121.128C430.813,122.767 428.611,123.586 426.408,123.586Z" style="fill:white;fill-rule:nonzero;"/>
            </g>
            <g transform="matrix(1,0,0,1,338.243,253.365)">
                <path d="M384.525,48.301C383.132,48.301 381.719,47.973 380.405,47.275C372.258,42.965 363.831,39.068 355.358,35.689C350.828,33.887 348.617,28.758 350.418,24.223C352.224,19.697 357.362,17.473 361.884,19.292C370.949,22.896 379.957,27.059 388.665,31.672C392.975,33.956 394.618,39.292 392.337,43.604C390.748,46.595 387.688,48.301 384.525,48.301Z" style="fill:white;fill-rule:nonzero;"/>
            </g>
            <g transform="matrix(1,0,0,1,338.243,253.365)">
                <path d="M146.184,43.828C142.903,43.828 139.753,41.992 138.231,38.837C136.11,34.449 137.951,29.173 142.344,27.052C179.528,9.103 219.429,0 260.939,0C282.569,0 304.111,2.543 324.969,7.561C329.711,8.707 332.628,13.474 331.486,18.216C330.344,22.958 325.58,25.854 320.84,24.733C301.331,20.035 281.18,17.655 260.939,17.655C222.111,17.655 184.788,26.164 150.017,42.948C148.779,43.543 147.473,43.828 146.184,43.828Z" style="fill:white;fill-rule:nonzero;"/>
            </g>
        </g>
    </g>
</svg>
