<?xml version="1.0" encoding="UTF-8" standalone="no"?>
<!DOCTYPE svg PUBLIC "-//W3C//DTD SVG 1.1//EN" "http://www.w3.org/Graphics/SVG/1.1/DTD/svg11.dtd">
<svg width="100%" height="100%" viewBox="0 0 142 40" version="1.1" xmlns="http://www.w3.org/2000/svg" xmlns:xlink="http://www.w3.org/1999/xlink" xml:space="preserve" xmlns:serif="http://www.serif.com/" style="fill-rule:evenodd;clip-rule:evenodd;stroke-linejoin:round;stroke-miterlimit:2;">
    <g>
        <g transform="matrix(1,0,0,1,-0.973633,0)">
            <path d="M78.974,8C78.974,12.418 75.392,16 70.974,16C67.246,16 64.114,13.451 63.226,10L52.056,10C50.101,10 48.432,11.414 48.111,13.342L47.782,15.315C47.47,17.188 46.522,18.819 45.182,20C46.522,21.182 47.47,22.812 47.782,24.685L48.111,26.658C48.432,28.586 50.101,30 52.056,30L55.226,30C56.114,26.549 59.246,24 62.974,24C67.392,24 70.974,27.582 70.974,32C70.974,36.418 67.392,40 62.974,40C59.246,40 56.114,37.451 55.226,34L52.056,34C48.146,34 44.808,31.173 44.165,27.315L43.836,25.342C43.515,23.414 41.846,22 39.891,22L36.628,22C35.629,25.28 32.58,27.667 28.974,27.667C25.367,27.667 22.318,25.28 21.319,22L16.628,22C15.629,25.28 12.58,27.667 8.974,27.667C4.555,27.667 0.974,24.085 0.974,19.667C0.974,15.248 4.555,11.667 8.974,11.667C12.82,11.667 16.033,14.382 16.8,18L21.148,18C21.914,14.382 25.127,11.667 28.974,11.667C32.82,11.667 36.033,14.382 36.8,18L39.891,18C41.846,18 43.515,16.586 43.836,14.658L44.165,12.685C44.808,8.827 48.146,6 52.056,6L63.226,6C64.114,2.55 67.246,0 70.974,0C75.392,0 78.974,3.582 78.974,8ZM74.974,8C74.974,10.209 73.183,12 70.974,12C68.765,12 66.974,10.209 66.974,8C66.974,5.791 68.765,4 70.974,4C73.183,4 74.974,5.791 74.974,8ZM8.974,23.667C11.183,23.667 12.974,21.876 12.974,19.667C12.974,17.458 11.183,15.667 8.974,15.667C6.764,15.667 4.974,17.458 4.974,19.667C4.974,21.876 6.764,23.667 8.974,23.667ZM28.974,23.667C31.183,23.667 32.974,21.876 32.974,19.667C32.974,17.458 31.183,15.667 28.974,15.667C26.765,15.667 24.974,17.458 24.974,19.667C24.974,21.876 26.765,23.667 28.974,23.667ZM62.974,36C65.183,36 66.974,34.209 66.974,32C66.974,29.791 65.183,28 62.974,28C60.765,28 58.974,29.791 58.974,32C58.974,34.209 60.765,36 62.974,36Z" style="fill:white;"/>
        </g>
        <g transform="matrix(1,0,0,1,-0.973633,0)">
            <path d="M86.979,30.001L91.155,30.001L91.155,21.158C91.155,18.254 92.918,16.981 94.908,16.981C96.866,16.981 98.4,18.286 98.4,20.962L98.4,30.001L102.576,30.001L102.576,20.114C102.576,15.839 100.096,13.359 96.213,13.359C93.766,13.359 92.395,14.338 91.416,15.61L91.155,15.61L90.796,13.685L86.979,13.685L86.979,30.001Z" style="fill:white;fill-rule:nonzero;"/>
        </g>
        <g transform="matrix(1,0,0,1,-0.973633,0)">
            <path d="M118.563,19.004L118.563,18.808C119.999,18.09 121.435,16.85 121.435,14.403C121.435,10.879 118.53,8.758 114.517,8.758C110.405,8.758 107.468,11.009 107.468,14.468C107.468,16.818 108.839,18.09 110.34,18.808L110.34,19.004C108.676,19.592 106.685,21.354 106.685,24.29C106.685,27.847 109.622,30.327 114.484,30.327C119.346,30.327 122.185,27.847 122.185,24.29C122.185,21.354 120.227,19.624 118.563,19.004ZM114.484,11.76C116.116,11.76 117.323,12.804 117.323,14.566C117.323,16.328 116.083,17.373 114.484,17.373C112.885,17.373 111.547,16.328 111.547,14.566C111.547,12.772 112.82,11.76 114.484,11.76ZM114.484,27.195C112.591,27.195 111.058,25.987 111.058,23.932C111.058,22.072 112.33,20.668 114.451,20.668C116.54,20.668 117.813,22.039 117.813,23.997C117.813,25.987 116.344,27.195 114.484,27.195Z" style="fill:white;fill-rule:nonzero;"/>
        </g>
        <g transform="matrix(1,0,0,1,-0.973633,0)">
            <path d="M126.428,30.001L130.605,30.001L130.605,21.158C130.605,18.254 132.367,16.981 134.358,16.981C136.316,16.981 137.849,18.286 137.849,20.962L137.849,30.001L142.026,30.001L142.026,20.114C142.026,15.839 139.546,13.359 135.663,13.359C133.216,13.359 131.845,14.338 130.866,15.61L130.605,15.61L130.246,13.685L126.428,13.685L126.428,30.001Z" style="fill:white;fill-rule:nonzero;"/>
        </g>
    </g>
</svg>
