<?xml version="1.0" encoding="UTF-8" standalone="no"?>
<!DOCTYPE svg PUBLIC "-//W3C//DTD SVG 1.1//EN" "http://www.w3.org/Graphics/SVG/1.1/DTD/svg11.dtd">
<svg width="100%" height="100%" viewBox="0 0 482 71" version="1.1" xmlns="http://www.w3.org/2000/svg" xmlns:xlink="http://www.w3.org/1999/xlink" xml:space="preserve" xmlns:serif="http://www.serif.com/" style="fill-rule:evenodd;clip-rule:evenodd;stroke-linejoin:round;stroke-miterlimit:2;">
    <g transform="matrix(1,0,0,1,63.5631,-145.759)">
        <g transform="matrix(1,0,0,-1,-63.563,6.27832)">
            <path d="M184.37,-197.661L182.383,-197.661C181.479,-197.661 179.794,-197.541 178.409,-195.072C175.399,-189.714 172.088,-180.984 170.162,-172.195C168.175,-181.165 164.803,-190.557 160.529,-197.661L158.603,-197.661C157.699,-197.661 155.833,-197.541 154.448,-195.072C148.368,-184.296 143.672,-169.365 141.986,-156.061L146.742,-156.061C149.632,-156.061 151.318,-158.589 151.679,-160.756C152.823,-167.8 154.629,-175.446 158.482,-184.657C162.214,-175.808 165.225,-163.525 166.369,-157.625L169.078,-157.625C171.787,-157.625 174.677,-158.83 175.52,-163.104C176.904,-170.027 179.011,-176.951 182.323,-184.657C185.754,-176.289 188.704,-165.934 190.029,-156.121L194.303,-156.121C196.229,-156.121 197.915,-157.505 197.915,-159.974C197.915,-162.201 195.025,-172.075 193.641,-176.409C191.594,-182.851 189.065,-189.533 184.37,-197.661Z" style="fill:white;fill-rule:nonzero;"/>
        </g>
        <g transform="matrix(1,0,0,-1,-63.563,14.6465)">
            <path d="M214.169,-162.924C209.534,-162.924 207.186,-166.776 207.186,-172.135C207.186,-178.576 209.534,-182.43 214.892,-182.43C219.587,-182.43 221.875,-178.576 221.875,-173.278C221.875,-166.776 219.467,-162.924 214.169,-162.924ZM214.892,-155.699C224.645,-155.699 230.244,-163.526 230.244,-172.135C230.244,-181.888 224.645,-189.654 214.169,-189.654C204.416,-189.654 198.817,-181.888 198.817,-173.278C198.817,-163.526 204.416,-155.699 214.892,-155.699Z" style="fill:white;fill-rule:nonzero;"/>
        </g>
        <g transform="matrix(1,0,0,-1,-63.563,14.3452)">
            <path d="M253.783,-164.61C252.579,-164.128 251.194,-163.646 249.086,-163.646C245.474,-163.646 243.487,-165.633 243.487,-170.57L243.487,-189.233L241.26,-189.233C237.648,-189.233 235.36,-187.427 235.36,-184.055L235.36,-169.125C235.36,-162.623 238.791,-156.422 247.34,-156.422C252.337,-156.422 254.083,-159.251 254.083,-161.72L254.083,-164.61L253.783,-164.61Z" style="fill:white;fill-rule:nonzero;"/>
        </g>
        <g transform="matrix(1,0,0,-1,-63.563,3.99024)">
            <path d="M267.026,-161.6L267.026,-180.985C270.157,-176.891 273.227,-172.737 276.959,-169.185C278.886,-167.379 280.812,-167.078 283.401,-167.078L288.037,-167.078L288.037,-167.379C285.75,-169.306 278.224,-177.854 274.852,-182.129C277.441,-185.319 279.969,-188.631 282.859,-191.581C285.809,-194.531 287.133,-195.133 289.121,-195.795C288.278,-198.384 286.954,-199.769 283.642,-199.769C281.835,-199.769 279.729,-198.926 278.344,-197.541C274.19,-193.267 270.578,-188.45 267.026,-183.694L267.026,-199.527L264.437,-199.588C260.705,-199.648 258.898,-197.661 258.898,-193.868L258.898,-156.241L261.487,-156.241C265.4,-156.241 267.026,-158.469 267.026,-161.6Z" style="fill:white;fill-rule:nonzero;"/>
        </g>
        <g transform="matrix(1,0,0,-1,-63.563,3.20751)">
            <path d="M311.636,-164.249C310.372,-163.827 308.926,-163.526 306.94,-163.526C303.628,-163.526 301.161,-164.67 301.161,-169.004L301.161,-171.895L310.432,-171.895L310.432,-174.122C310.432,-177.012 307.361,-178.698 304.652,-178.698L301.161,-178.698L301.161,-200.371L297.91,-200.371C295.321,-200.371 293.033,-198.384 293.033,-195.554L293.033,-168.342C293.033,-163.767 296.224,-156.422 305.675,-156.422C309.167,-156.422 311.876,-158.349 311.876,-161.54L311.876,-164.249L311.636,-164.249Z" style="fill:white;fill-rule:nonzero;"/>
        </g>
        <g transform="matrix(1,0,0,-1,-63.563,4.11036)">
            <path d="M325.784,-199.769C319.101,-199.769 315.489,-196.217 315.489,-189.654L315.489,-156.121L317.777,-156.121C321.81,-156.121 323.556,-158.469 323.556,-161.54L323.556,-188.872C323.556,-192.123 325.242,-193.146 329.035,-193.146L331.203,-193.146L331.203,-194.893C331.203,-198.384 329.336,-199.769 325.784,-199.769Z" style="fill:white;fill-rule:nonzero;"/>
        </g>
        <g transform="matrix(1,0,0,-1,-63.563,14.6465)">
            <path d="M348.66,-162.924C344.024,-162.924 341.676,-166.776 341.676,-172.135C341.676,-178.576 344.024,-182.43 349.382,-182.43C354.079,-182.43 356.366,-178.576 356.366,-173.278C356.366,-166.776 353.958,-162.924 348.66,-162.924ZM349.382,-155.699C359.135,-155.699 364.734,-163.526 364.734,-172.135C364.734,-181.888 359.135,-189.654 348.66,-189.654C338.907,-189.654 333.308,-181.888 333.308,-173.278C333.308,-163.526 338.907,-155.699 349.382,-155.699Z" style="fill:white;fill-rule:nonzero;"/>
        </g>
        <g transform="matrix(1,0,0,-1,-63.563,14.6465)">
            <path d="M384.902,-162.924C380.266,-162.924 377.918,-166.776 377.918,-172.135C377.918,-178.576 380.266,-182.43 385.625,-182.43C390.321,-182.43 392.608,-178.576 392.608,-173.278C392.608,-166.776 390.2,-162.924 384.902,-162.924ZM385.625,-155.699C395.377,-155.699 400.976,-163.526 400.976,-172.135C400.976,-181.888 395.377,-189.654 384.902,-189.654C375.149,-189.654 369.55,-181.888 369.55,-173.278C369.55,-163.526 375.149,-155.699 385.625,-155.699Z" style="fill:white;fill-rule:nonzero;"/>
        </g>
        <g transform="matrix(1,0,0,-1,-63.563,14.8272)">
            <path d="M448.716,-173.158C446.308,-180.021 443.298,-185.981 441.191,-189.112L439.867,-189.112C437.338,-189.112 435.412,-186.765 434.328,-184.777C432.341,-181.165 429.873,-175.145 428.97,-170.208C427.947,-175.145 424.154,-185.199 421.264,-189.112L420.18,-189.112C417.772,-189.112 415.484,-186.704 414.401,-184.777C409.705,-176.47 406.574,-167.078 405.129,-156.241L409.464,-156.241C412.233,-156.241 413.859,-158.348 414.16,-160.154C415.123,-165.693 416.628,-171.834 419.337,-177.733C422.288,-171.292 423.913,-164.308 425.478,-157.445L428.127,-157.445C430.595,-157.445 433.064,-158.469 433.846,-162.021C434.81,-166.415 436.796,-173.158 439.084,-177.733C442.155,-170.931 443.9,-163.405 445.165,-156.061L448.536,-156.061C450.824,-156.061 452.45,-157.084 452.45,-159.552C452.45,-160.816 451.125,-166.415 448.716,-173.158Z" style="fill:white;fill-rule:nonzero;"/>
        </g>
        <g transform="matrix(1,0,0,-1,-63.563,14.6465)">
            <path d="M468.283,-189.654C462.323,-189.654 457.868,-186.584 457.868,-183.272L457.868,-179.6L458.168,-179.6C459.915,-181.226 464.068,-182.671 467.921,-182.671C471.895,-182.671 473.821,-181.526 473.821,-179.118C473.821,-177.252 472.677,-176.349 467.079,-175.566C460.215,-174.604 456.904,-171.894 456.904,-166.957C456.904,-160.877 462.382,-155.699 470.691,-155.699C478.036,-155.699 481.045,-159.492 481.045,-162.623L481.045,-165.693L480.745,-165.693C479.059,-164.007 475.327,-162.683 471.473,-162.683C466.537,-162.683 464.971,-164.188 464.971,-166.295C464.971,-167.921 465.935,-168.583 471.473,-169.486C478.216,-170.569 481.829,-173.52 481.829,-178.697C481.829,-185.561 477.012,-189.654 468.283,-189.654Z" style="fill:white;fill-rule:nonzero;"/>
        </g>
        <g transform="matrix(1,0,0,-1,-63.563,0.61328)">
            <path d="M65.59,-161.093C68.594,-162.838 73.111,-175.926 75.85,-184.105C69.914,-189.719 66.481,-190.196 65.469,-190.167L65.173,-190.162C63.964,-190.121 60.666,-189.328 55.202,-184.169C57.982,-175.963 62.568,-162.83 65.59,-161.093ZM10.794,-169.434C9.412,-165.007 8.85,-161.515 8.85,-158.993C8.85,-156.529 9.386,-154.991 10.217,-154.412C14.786,-151.229 28.944,-167.734 37.403,-177.595C37.403,-177.595 45.03,-186.355 45.113,-186.45C42.318,-194.598 38.254,-205.701 35.553,-207.108C31.334,-206.829 16.821,-188.741 10.794,-169.434ZM5.176,-147.174C-7.145,-155.755 5.841,-182.088 10.115,-189.954C13.983,-197.075 27.482,-219.952 38.761,-215.356C44.221,-213.133 47.777,-205.421 52.106,-193.165C56.702,-196.867 61.012,-198.846 64.967,-198.979L65.285,-198.985C69.422,-199.104 74.001,-197.108 78.92,-193.132C83.207,-205.401 86.743,-213.124 92.226,-215.356C102.826,-219.677 115.029,-199.044 119.783,-189.974C124.064,-181.806 137.143,-154.574 125.701,-147.101C117.313,-141.624 107.705,-150.108 104.545,-152.898C102.719,-154.511 102.546,-157.297 104.158,-159.123C105.771,-160.949 108.557,-161.122 110.383,-159.51C115.297,-155.17 119.122,-153.339 120.878,-154.485C121.095,-154.695 121.426,-155.627 121.426,-157.512C121.426,-160.249 120.729,-164.995 117.978,-172.459C110.803,-191.923 99.026,-206.562 95.401,-207.088C92.692,-205.616 88.679,-194.529 85.921,-186.396C86.399,-185.847 91.813,-179.637 91.813,-179.637L93.451,-177.727C94.164,-176.894 94.514,-175.872 94.514,-174.854C94.514,-173.611 93.992,-172.375 92.975,-171.504C91.125,-169.919 88.345,-170.13 86.76,-171.979L85.112,-173.903C85.112,-173.903 83.855,-175.344 82.664,-176.711C77.833,-162.587 73.403,-152.162 65.592,-152.162C57.776,-152.162 53.3,-162.626 48.399,-176.794C46.284,-174.364 44.098,-171.852 44.098,-171.852C29.796,-155.181 16.288,-139.435 5.176,-147.174Z" style="fill:white;fill-rule:nonzero;"/>
        </g>
        <g transform="matrix(1,0,0,-1,-63.563,-28.1987)">
            <path d="M98.51,-189.427C95.928,-189.427 93.836,-191.519 93.836,-194.099C93.836,-196.68 95.928,-198.771 98.51,-198.771C101.089,-198.771 103.181,-196.68 103.181,-194.099C103.181,-191.519 101.089,-189.427 98.51,-189.427Z" style="fill:white;fill-rule:nonzero;"/>
        </g>
    </g>
</svg>
